<svg xmlns="http://www.w3.org/2000/svg" viewBox="0 0 7620 7620">
  <style>
    @keyframes blink{0%,90%,100%{transform:scaleY(1)}95%{transform:scaleY(.05)}}
    .e{animation:blink 3s ease-in-out infinite;transform-box:fill-box;transform-origin:center}
    .e2{animation-delay:.1s}
  </style>
  <rect width="7620" height="7620" rx="381" fill="#C4F042"/>
  <path fill="#142100" d="M6645.84 1503.48c-94.7 280.1-961.81 992.1-1244.58 1195.44-259.89 186.89-1371.74 836.66-1615.34 810.83-144.72-15.37-708.99-302.14-851.9-376.87-719.53-376.3-1511.87-970.46-1969.67-1637.63l1294.55 447.22c227.04 84.58 465.41-14.65 725.92-43.74 660.6-73.72 980.59-71.68 1639.29-1.5 247.02 26.34 508.36 131.44 729.2 48.25l1292.53-442z"/>
  <path fill="#142100" d="M836.92 4149.53c31.74-378.43 140.36-678.11 322.68-935.82 286.66-405.2 547.23-497.43 635.5-584.73 81.36 29.86 100.15 50.32 170.22 106.58 118.86 95.42 377.79 244.27 447.89 314.37-658.48 40.99-1119.43 451.76-1196.76 1095.16l-379.53 4.44z"/>
  <path fill="#142100" d="M5203.76 3046.73c138.4-64.42 500.78-368.51 603-413.69 264.3 117.76 507.61 360.64 660.01 585.08 163.56 240.91 303.06 568.59 316.34 932.72l-376.9-7.2c-59.96-674.53-554.24-1025.06-1202.45-1096.91z"/>
  <path fill="#142100" d="M6779.43 4382.35c-89.7 735.81-412.92 1180.96-891.34 1465.5-601.95 358-1290.86 266.53-2083.98 265.45-799.62-1.05-1459.01 98.25-2079.94-269.7-433.62-256.94-851.77-793.28-884.27-1466.22l373.62-.03c69.75 568.01 472.5 1008.07 1026.59 1084.86 245.19 33.98 670.52-88.99 921.52-135.9 317.63-59.37 205.3 62.9 648.69 318.57 385.47-265.64 409.07-366.04 662.81-317.28 572.01 109.88 1090.45 327.09 1613.12-236.93 300.29-324.06 244.68-499.74 334.96-709.72l358.22 1.4z"/>
  <path class="e" fill="#142100" d="M2435.01 3665.78c-807.8 224.98-466.08 1414.83 325.56 1198.75 284.62-77.7 530.18-385.33 435.41-759.92-72.2-285.29-384.64-543.63-760.97-438.83z"/>
  <path class="e e2" fill="#142100" d="M4853.82 3671.78c-816.61 282.31-408.32 1411.22 359.1 1187.24 273.79-79.91 524.57-402.78 413.88-777.71-80.53-272.74-405.38-536.64-772.98-409.53z"/>
</svg>
